<mxfile host="app.diagrams.net" agent="Mozilla/5.0 (Windows NT 10.0; Win64; x64) AppleWebKit/537.36 (KHTML, like Gecko) Chrome/129.0.0.0 Safari/537.36 Edg/129.0.0.0" version="24.7.17">
  <diagram name="Page-1" id="cwHrFa3Gu8aGHb4hvBp2">
    <mxGraphModel dx="1426" dy="783" grid="1" gridSize="10" guides="1" tooltips="1" connect="1" arrows="1" fold="1" page="1" pageScale="1" pageWidth="827" pageHeight="1169" math="0" shadow="0">
      <root>
        <mxCell id="0" />
        <mxCell id="1" parent="0" />
        <mxCell id="0UGQCueGJtoylNujDZal-2" style="edgeStyle=orthogonalEdgeStyle;rounded=0;orthogonalLoop=1;jettySize=auto;html=1;" parent="1" source="0UGQCueGJtoylNujDZal-1" target="0UGQCueGJtoylNujDZal-3" edge="1">
          <mxGeometry relative="1" as="geometry">
            <mxPoint x="400" y="190" as="targetPoint" />
          </mxGeometry>
        </mxCell>
        <mxCell id="0UGQCueGJtoylNujDZal-1" value="start" style="ellipse;whiteSpace=wrap;html=1;" parent="1" vertex="1">
          <mxGeometry x="340" y="50" width="120" height="90" as="geometry" />
        </mxCell>
        <mxCell id="0UGQCueGJtoylNujDZal-4" style="edgeStyle=orthogonalEdgeStyle;rounded=0;orthogonalLoop=1;jettySize=auto;html=1;" parent="1" source="0UGQCueGJtoylNujDZal-3" edge="1">
          <mxGeometry relative="1" as="geometry">
            <mxPoint x="400" y="270" as="targetPoint" />
          </mxGeometry>
        </mxCell>
        <mxCell id="0UGQCueGJtoylNujDZal-3" value="get all 52 cards" style="rounded=0;whiteSpace=wrap;html=1;" parent="1" vertex="1">
          <mxGeometry x="340" y="170" width="120" height="60" as="geometry" />
        </mxCell>
        <mxCell id="0UGQCueGJtoylNujDZal-6" style="edgeStyle=orthogonalEdgeStyle;rounded=0;orthogonalLoop=1;jettySize=auto;html=1;" parent="1" source="0UGQCueGJtoylNujDZal-5" target="0UGQCueGJtoylNujDZal-7" edge="1">
          <mxGeometry relative="1" as="geometry">
            <mxPoint x="400" y="380" as="targetPoint" />
          </mxGeometry>
        </mxCell>
        <mxCell id="0UGQCueGJtoylNujDZal-5" value="shuffle cards" style="rounded=0;whiteSpace=wrap;html=1;" parent="1" vertex="1">
          <mxGeometry x="340" y="280" width="120" height="60" as="geometry" />
        </mxCell>
        <mxCell id="0UGQCueGJtoylNujDZal-9" style="edgeStyle=orthogonalEdgeStyle;rounded=0;orthogonalLoop=1;jettySize=auto;html=1;" parent="1" source="0UGQCueGJtoylNujDZal-7" target="0UGQCueGJtoylNujDZal-10" edge="1">
          <mxGeometry relative="1" as="geometry">
            <mxPoint x="400" y="470" as="targetPoint" />
          </mxGeometry>
        </mxCell>
        <mxCell id="0UGQCueGJtoylNujDZal-7" value="draw one card" style="rounded=0;whiteSpace=wrap;html=1;" parent="1" vertex="1">
          <mxGeometry x="340" y="360" width="120" height="60" as="geometry" />
        </mxCell>
        <mxCell id="0UGQCueGJtoylNujDZal-11" value="higher" style="edgeStyle=orthogonalEdgeStyle;rounded=0;orthogonalLoop=1;jettySize=auto;html=1;" parent="1" source="0UGQCueGJtoylNujDZal-10" edge="1">
          <mxGeometry relative="1" as="geometry">
            <mxPoint x="280" y="500" as="targetPoint" />
          </mxGeometry>
        </mxCell>
        <mxCell id="0UGQCueGJtoylNujDZal-12" value="lower" style="edgeStyle=orthogonalEdgeStyle;rounded=0;orthogonalLoop=1;jettySize=auto;html=1;exitX=1;exitY=0.5;exitDx=0;exitDy=0;" parent="1" source="0UGQCueGJtoylNujDZal-10" edge="1">
          <mxGeometry relative="1" as="geometry">
            <mxPoint x="520" y="500" as="targetPoint" />
          </mxGeometry>
        </mxCell>
        <mxCell id="0UGQCueGJtoylNujDZal-10" value="are the cards higher or lower?" style="rhombus;whiteSpace=wrap;html=1;" parent="1" vertex="1">
          <mxGeometry x="330" y="460" width="140" height="80" as="geometry" />
        </mxCell>
        <mxCell id="0UGQCueGJtoylNujDZal-17" style="edgeStyle=orthogonalEdgeStyle;rounded=0;orthogonalLoop=1;jettySize=auto;html=1;" parent="1" source="0UGQCueGJtoylNujDZal-16" target="0UGQCueGJtoylNujDZal-18" edge="1">
          <mxGeometry relative="1" as="geometry">
            <mxPoint x="220" y="680" as="targetPoint" />
          </mxGeometry>
        </mxCell>
        <mxCell id="0UGQCueGJtoylNujDZal-16" value="both sides draw a card" style="rounded=0;whiteSpace=wrap;html=1;" parent="1" vertex="1">
          <mxGeometry x="160" y="500" width="120" height="60" as="geometry" />
        </mxCell>
        <mxCell id="0UGQCueGJtoylNujDZal-19" value="higher" style="edgeStyle=orthogonalEdgeStyle;rounded=0;orthogonalLoop=1;jettySize=auto;html=1;entryX=0.357;entryY=0.125;entryDx=0;entryDy=0;entryPerimeter=0;" parent="1" source="0UGQCueGJtoylNujDZal-18" target="0UGQCueGJtoylNujDZal-10" edge="1">
          <mxGeometry relative="1" as="geometry">
            <mxPoint x="330" y="440" as="targetPoint" />
            <Array as="points">
              <mxPoint x="91" y="650" />
              <mxPoint x="91" y="460" />
              <mxPoint x="330" y="460" />
              <mxPoint x="330" y="470" />
            </Array>
          </mxGeometry>
        </mxCell>
        <mxCell id="0UGQCueGJtoylNujDZal-20" value="lower" style="edgeStyle=orthogonalEdgeStyle;rounded=0;orthogonalLoop=1;jettySize=auto;html=1;" parent="1" source="0UGQCueGJtoylNujDZal-18" target="0UGQCueGJtoylNujDZal-22" edge="1">
          <mxGeometry relative="1" as="geometry">
            <mxPoint x="320" y="710" as="targetPoint" />
          </mxGeometry>
        </mxCell>
        <mxCell id="0UGQCueGJtoylNujDZal-18" value="is the first card higher than the second card?" style="rhombus;whiteSpace=wrap;html=1;" parent="1" vertex="1">
          <mxGeometry x="160" y="610" width="120" height="80" as="geometry" />
        </mxCell>
        <mxCell id="0UGQCueGJtoylNujDZal-22" value="end game" style="rounded=0;whiteSpace=wrap;html=1;" parent="1" vertex="1">
          <mxGeometry x="340" y="620" width="120" height="60" as="geometry" />
        </mxCell>
        <mxCell id="0UGQCueGJtoylNujDZal-25" style="edgeStyle=orthogonalEdgeStyle;rounded=0;orthogonalLoop=1;jettySize=auto;html=1;exitX=1;exitY=0.75;exitDx=0;exitDy=0;entryX=1;entryY=0.5;entryDx=0;entryDy=0;" parent="1" source="0UGQCueGJtoylNujDZal-22" target="0UGQCueGJtoylNujDZal-22" edge="1">
          <mxGeometry relative="1" as="geometry" />
        </mxCell>
        <mxCell id="0UGQCueGJtoylNujDZal-36" style="edgeStyle=orthogonalEdgeStyle;rounded=0;orthogonalLoop=1;jettySize=auto;html=1;entryX=0.5;entryY=0;entryDx=0;entryDy=0;" parent="1" source="0UGQCueGJtoylNujDZal-28" target="0UGQCueGJtoylNujDZal-33" edge="1">
          <mxGeometry relative="1" as="geometry" />
        </mxCell>
        <mxCell id="0UGQCueGJtoylNujDZal-28" value="both sides draw a second card" style="rounded=0;whiteSpace=wrap;html=1;" parent="1" vertex="1">
          <mxGeometry x="520" y="470" width="120" height="60" as="geometry" />
        </mxCell>
        <mxCell id="0UGQCueGJtoylNujDZal-37" value="higher" style="edgeStyle=orthogonalEdgeStyle;rounded=0;orthogonalLoop=1;jettySize=auto;html=1;" parent="1" source="0UGQCueGJtoylNujDZal-33" target="0UGQCueGJtoylNujDZal-40" edge="1">
          <mxGeometry relative="1" as="geometry">
            <mxPoint x="580" y="720" as="targetPoint" />
          </mxGeometry>
        </mxCell>
        <mxCell id="0UGQCueGJtoylNujDZal-38" value="lower" style="edgeStyle=orthogonalEdgeStyle;rounded=0;orthogonalLoop=1;jettySize=auto;html=1;" parent="1" source="0UGQCueGJtoylNujDZal-33" target="0UGQCueGJtoylNujDZal-28" edge="1">
          <mxGeometry relative="1" as="geometry">
            <mxPoint x="680" y="500" as="targetPoint" />
            <Array as="points">
              <mxPoint x="681" y="625" />
              <mxPoint x="681" y="500" />
            </Array>
          </mxGeometry>
        </mxCell>
        <mxCell id="0UGQCueGJtoylNujDZal-33" value="is the first card higher than the second card?" style="rhombus;whiteSpace=wrap;html=1;" parent="1" vertex="1">
          <mxGeometry x="520" y="585" width="120" height="80" as="geometry" />
        </mxCell>
        <mxCell id="0UGQCueGJtoylNujDZal-40" value="end game" style="rounded=0;whiteSpace=wrap;html=1;" parent="1" vertex="1">
          <mxGeometry x="520" y="720" width="120" height="60" as="geometry" />
        </mxCell>
      </root>
    </mxGraphModel>
  </diagram>
</mxfile>
